# xmcd
#
# Track frame offsets:
#	150
#	22017
#	36647
#	49034
#	64872
#	75934
#	99152
#	114675
#	128973
#	142367
#	157930
#	168811
#	188812
#	200255
#
# Disc length: 2810 seconds
#
# Revision: 1
# Processed by: cddbd v1.5.2PL0 Copyright (c) Steve Scherf et al.
# Submitted via: audiograbber 1.83.01
#
DISCID=bc0af80e
DTITLE=Hickory Wind - Life's Railway To Heaven
DYEAR=1900
DGENRE=Bluegrass
TTITLE0=Life's Railway To Heaven
TTITLE1=Have You Been A Friend
TTITLE2=The Old Cross Roads
TTITLE3=Go Rest High On That Mountain
TTITLE4=Gone Home
TTITLE5=Lord Light A Candle
TTITLE6=Scarlet Purple Robe
TTITLE7=Imagine
TTITLE8=Rise And Follow Me
TTITLE9=Some Call It Heaven
TTITLE10=Light At The Rive
TTITLE11=The Dream
TTITLE12=I Want To Live Beyond The Grave
TTITLE13=Grandma's Rocking Chair
EXTD=
EXTT0=
EXTT1=
EXTT2=
EXTT3=
EXTT4=
EXTT5=
EXTT6=
EXTT7=
EXTT8=
EXTT9=
EXTT10=
EXTT11=
EXTT12=
EXTT13=
PLAYORDER=
